<svg xmlns="http://www.w3.org/2000/svg" viewBox="0 0 32 32" style="display: block; height: 20px; width: 20px; fill: currentcolor;" aria-hidden="true" role="presentation" focusable="false"><path d="M30.51 5.88A5.06 5.06 0 0 0 26 3H6a5.06 5.06 0 0 0-4.51 2.88A4.94 4.94 0 0 0 1 8v16a5 5 0 0 0 5 5h20a5 5 0 0 0 5-5V8a4.94 4.94 0 0 0-.49-2.12ZM6 5h20a2.97 2.97 0 0 1 1.77.6L17.95 14a2.98 2.98 0 0 1-3.9 0L4.23 5.6A2.97 2.97 0 0 1 6 5Zm23 19a3 3 0 0 1-3 3H6a3 3 0 0 1-3-3V8a2.97 2.97 0 0 1 .1-.74l9.65 8.27a4.97 4.97 0 0 0 6.5 0l9.65-8.27A2.97 2.97 0 0 1 29 8Z"></path></svg>