<svg xmlns="http://www.w3.org/2000/svg" viewBox="0 0 32 32" style="display: block; height: 20px; width: 20px; fill: currentcolor;" aria-hidden="true" role="presentation" focusable="false"><path d="M22 1a5 5 0 0 1 5 4.78V26a5 5 0 0 1-4.78 5H10a5 5 0 0 1-5-4.78V6a5 5 0 0 1 4.78-5H10zm0 2H10a3 3 0 0 0-3 2.82V26a3 3 0 0 0 2.82 3H22a3 3 0 0 0 3-2.82V6a3 3 0 0 0-2.82-3zm-6 22a1 1 0 1 1 0 2 1 1 0 0 1 0-2zm4-4a1 1 0 1 1 0 2 1 1 0 0 1 0-2zm-4 0a1 1 0 1 1 0 2 1 1 0 0 1 0-2zm-4 0a1 1 0 1 1 0 2 1 1 0 0 1 0-2zm8-4a1 1 0 1 1 0 2 1 1 0 0 1 0-2zm-4 0a1 1 0 1 1 0 2 1 1 0 0 1 0-2zm-4 0a1 1 0 1 1 0 2 1 1 0 0 1 0-2zm8-4a1 1 0 1 1 0 2 1 1 0 0 1 0-2zm-4 0a1 1 0 1 1 0 2 1 1 0 0 1 0-2zm-4 0a1 1 0 1 1 0 2 1 1 0 0 1 0-2z"></path></svg>